<?xml version="1.0" encoding="utf-8"?>
<!-- Generator: Adobe Illustrator 25.0.1, SVG Export Plug-In . SVG Version: 6.00 Build 0)  -->
<svg version="1.1" id="图层_1" xmlns="http://www.w3.org/2000/svg" xmlns:xlink="http://www.w3.org/1999/xlink" x="0px" y="0px"
	 viewBox="0 0 189.1 192.9" style="enable-background:new 0 0 189.1 192.9;" xml:space="preserve">
<style type="text/css">
	.st0{opacity:0.9;fill:#0061A0;enable-background:new    ;}
	.st1{opacity:0.9;fill:#0090DA;enable-background:new    ;}
	.st2{opacity:0.9;fill:#A3CE4E;enable-background:new    ;}
	.st3{enable-background:new    ;}
</style>
<path class="st0" d="M33.6,50.1L120,72.5c3.5,0.9,7.1-1.2,8-4.7c0,0,0,0,0,0l0.1-0.4l9.2-44.8c0.6-3-1-6.1-3.8-7.4
	C117.1,8.2,62.7-10.5,29.7,40.1c-2,3.1-1.1,7.1,2,9.1C32.3,49.6,32.9,49.9,33.6,50.1z"/>
<path class="st1" d="M102.9,138.6L77.5,53.6c-1-3.5-4.7-5.5-8.2-4.5L69,49.2L25.7,64.6c-2.9,1-4.7,3.9-4.4,6.9
	c1.7,16.9,11.8,70.3,74.8,75.6c3.6,0.3,6.8-2.4,7.1-6C103.2,140.3,103.1,139.4,102.9,138.6z"/>
<path class="st2" d="M145.3,36.2l-62.7,63c-2.6,2.6-2.6,6.7,0,9.3c0.1,0.1,0.2,0.2,0.3,0.3l34.2,30.5c2.2,2,5.6,2.3,8.1,0.6
	c14.1-9.6,56.2-44,30.9-101.8c-1.5-3.3-5.4-4.8-8.7-3.3c0,0,0,0,0,0C146.5,35.2,145.8,35.7,145.3,36.2z"/>
<g>
	<g class="st3">
		<path d="M3.7,154.1h11.9l5.5,18.8h0.3l5.8-18.8h11.5v33.3h-7.2v-26.2h-0.3l-6.4,19.9h-7.3l-6.3-19.9h-0.3v26.2H3.7V154.1z"/>
		<path d="M68.2,176l-16.7,1.1c0.2,3.7,2.4,5.4,7,5.4c3.2,0,6.9-0.9,8.6-1.8v5.5c-1.5,0.9-5.4,1.8-9.9,1.8
			c-7.9,0-12.6-2.9-12.6-13.4S49.2,161,57.3,161c9,0,11.1,4.7,11.1,11.4C68.4,173.9,68.3,175.3,68.2,176z M62.1,171.4
			c0-2.8-0.7-5.1-4.8-5.1c-4.3,0-5.7,1.9-5.9,6L62.1,171.4z"/>
		<path d="M96.3,176l-16.7,1.1c0.2,3.7,2.4,5.4,7,5.4c3.2,0,6.9-0.9,8.6-1.8v5.5c-1.5,0.9-5.4,1.8-9.9,1.8
			c-7.9,0-12.6-2.9-12.6-13.4S77.3,161,85.4,161c9,0,11.1,4.7,11.1,11.4C96.5,173.9,96.4,175.3,96.3,176z M90.2,171.4
			c0-2.8-0.7-5.1-4.8-5.1c-4.3,0-5.7,1.9-5.9,6L90.2,171.4z"/>
		<path d="M109.6,167v11.6c0,3,0.5,3.7,3,3.7c0.8,0,1.5,0,2.1-0.2v5.4c-1,0.1-2.2,0.2-3.4,0.2c-6.4,0-8.6-1.8-8.6-8.6V167h-3.4v-5.5
			h3.4v-6.1h7v6.1h5.4v5.5H109.6z"/>
		<path d="M119.2,181V151h7v28.4c0,2.3,0.6,2.9,2.2,2.9c0.4,0,0.8,0,1.4-0.1v5.4c-0.9,0.2-1.9,0.3-3,0.3
			C121,187.7,119.2,185.6,119.2,181z"/>
		<path d="M133.3,154.2c0-3.3,0.8-3.6,3.9-3.6c3.2,0,3.9,0.3,3.9,3.6c0,3.3-0.7,3.7-3.9,3.7C134.1,157.9,133.3,157.5,133.3,154.2z
			 M133.7,161.5h7v25.9h-7V161.5z"/>
	</g>
	<g class="st3">
		<path d="M155.7,161.5h5.1v5.4h-5.1v20.5h-7v-20.5h-4v-5.4h4v-0.2c0-9,3.9-10.5,10.2-10.5c1,0,2,0.1,3,0.2v5
			c-0.6-0.1-1.3-0.2-2.1-0.2C156.4,155.8,155.7,156.9,155.7,161.5z"/>
	</g>
	<g class="st3">
		<path d="M186.8,176l-16.7,1.1c0.2,3.7,2.4,5.4,7,5.4c3.2,0,6.9-0.9,8.6-1.8v5.5c-1.5,0.9-5.4,1.8-9.9,1.8
			c-7.9,0-12.6-2.9-12.6-13.4s4.7-13.4,12.8-13.4c9,0,11.1,4.7,11.1,11.4C187,173.9,186.9,175.3,186.8,176z M180.7,171.4
			c0-2.8-0.7-5.1-4.8-5.1c-4.3,0-5.7,1.9-5.9,6L180.7,171.4z"/>
	</g>
</g>
</svg>
